<svg width="512" height="125" viewBox="0 0 512 125" fill="none" xmlns="http://www.w3.org/2000/svg">
<path d="M512 0V85C512 93.2843 505.284 100 497 100L15 100C6.71573 100 0 93.2843 0 85V0L512 0Z" fill="#243748"/>
<rect x="307" y="100" width="6" height="104" transform="rotate(90 307 100)" fill="#010202"/>
<g filter="url(#filter0_d_23_1703)">
<mask id="path-3-outside-1_23_1703" maskUnits="userSpaceOnUse" x="215" y="18" width="81" height="28" fill="black">
<rect fill="white" x="215" y="18" width="81" height="28"/>
<path d="M218.594 20.25H221.516L228.969 38.7969L236.406 20.25H239.344L230.094 43H227.812L218.594 20.25ZM217.641 20.25H220.219L220.641 34.125V43H217.641V20.25ZM237.703 20.25H240.281V43H237.281V34.125L237.703 20.25ZM252.156 43.3125C250.979 43.3125 249.911 43.1146 248.953 42.7188C248.005 42.3125 247.188 41.7448 246.5 41.0156C245.823 40.2865 245.302 39.4219 244.938 38.4219C244.573 37.4219 244.391 36.3281 244.391 35.1406V34.4844C244.391 33.1094 244.594 31.8854 245 30.8125C245.406 29.7292 245.958 28.8125 246.656 28.0625C247.354 27.3125 248.146 26.7448 249.031 26.3594C249.917 25.974 250.833 25.7812 251.781 25.7812C252.99 25.7812 254.031 25.9896 254.906 26.4062C255.792 26.8229 256.516 27.4062 257.078 28.1562C257.641 28.8958 258.057 29.7708 258.328 30.7812C258.599 31.7812 258.734 32.875 258.734 34.0625V35.3594H246.109V33H255.844V32.7812C255.802 32.0312 255.646 31.3021 255.375 30.5938C255.115 29.8854 254.698 29.3021 254.125 28.8438C253.552 28.3854 252.771 28.1562 251.781 28.1562C251.125 28.1562 250.521 28.2969 249.969 28.5781C249.417 28.849 248.943 29.2552 248.547 29.7969C248.151 30.3385 247.844 31 247.625 31.7812C247.406 32.5625 247.297 33.4635 247.297 34.4844V35.1406C247.297 35.9427 247.406 36.6979 247.625 37.4062C247.854 38.1042 248.182 38.7188 248.609 39.25C249.047 39.7812 249.573 40.1979 250.188 40.5C250.812 40.8021 251.521 40.9531 252.312 40.9531C253.333 40.9531 254.198 40.7448 254.906 40.3281C255.615 39.9115 256.234 39.3542 256.766 38.6562L258.516 40.0469C258.151 40.599 257.688 41.125 257.125 41.625C256.562 42.125 255.87 42.5312 255.047 42.8438C254.234 43.1562 253.271 43.3125 252.156 43.3125ZM265 29.7031V43H262.109V26.0938H264.844L265 29.7031ZM264.312 33.9062L263.109 33.8594C263.12 32.7031 263.292 31.6354 263.625 30.6562C263.958 29.6667 264.427 28.8073 265.031 28.0781C265.635 27.349 266.354 26.7865 267.188 26.3906C268.031 25.9844 268.964 25.7812 269.984 25.7812C270.818 25.7812 271.568 25.8958 272.234 26.125C272.901 26.3438 273.469 26.6979 273.938 27.1875C274.417 27.6771 274.781 28.3125 275.031 29.0938C275.281 29.8646 275.406 30.8073 275.406 31.9219V43H272.5V31.8906C272.5 31.0052 272.37 30.2969 272.109 29.7656C271.849 29.224 271.469 28.8333 270.969 28.5938C270.469 28.3438 269.854 28.2188 269.125 28.2188C268.406 28.2188 267.75 28.3698 267.156 28.6719C266.573 28.974 266.068 29.3906 265.641 29.9219C265.224 30.4531 264.896 31.0625 264.656 31.75C264.427 32.4271 264.312 33.1458 264.312 33.9062ZM290.141 39.0938V26.0938H293.047V43H290.281L290.141 39.0938ZM290.688 35.5312L291.891 35.5C291.891 36.625 291.771 37.6667 291.531 38.625C291.302 39.5729 290.927 40.3958 290.406 41.0938C289.885 41.7917 289.203 42.3385 288.359 42.7344C287.516 43.1198 286.49 43.3125 285.281 43.3125C284.458 43.3125 283.703 43.1927 283.016 42.9531C282.339 42.7135 281.755 42.3438 281.266 41.8438C280.776 41.3438 280.396 40.6927 280.125 39.8906C279.865 39.0885 279.734 38.125 279.734 37V26.0938H282.625V37.0312C282.625 37.7917 282.708 38.4219 282.875 38.9219C283.052 39.4115 283.286 39.8021 283.578 40.0938C283.88 40.375 284.214 40.5729 284.578 40.6875C284.953 40.8021 285.339 40.8594 285.734 40.8594C286.964 40.8594 287.938 40.625 288.656 40.1562C289.375 39.6771 289.891 39.0365 290.203 38.2344C290.526 37.4219 290.688 36.5208 290.688 35.5312Z"/>
</mask>
<path d="M218.594 20.25H221.516L228.969 38.7969L236.406 20.25H239.344L230.094 43H227.812L218.594 20.25ZM217.641 20.25H220.219L220.641 34.125V43H217.641V20.25ZM237.703 20.25H240.281V43H237.281V34.125L237.703 20.25ZM252.156 43.3125C250.979 43.3125 249.911 43.1146 248.953 42.7188C248.005 42.3125 247.188 41.7448 246.5 41.0156C245.823 40.2865 245.302 39.4219 244.938 38.4219C244.573 37.4219 244.391 36.3281 244.391 35.1406V34.4844C244.391 33.1094 244.594 31.8854 245 30.8125C245.406 29.7292 245.958 28.8125 246.656 28.0625C247.354 27.3125 248.146 26.7448 249.031 26.3594C249.917 25.974 250.833 25.7812 251.781 25.7812C252.99 25.7812 254.031 25.9896 254.906 26.4062C255.792 26.8229 256.516 27.4062 257.078 28.1562C257.641 28.8958 258.057 29.7708 258.328 30.7812C258.599 31.7812 258.734 32.875 258.734 34.0625V35.3594H246.109V33H255.844V32.7812C255.802 32.0312 255.646 31.3021 255.375 30.5938C255.115 29.8854 254.698 29.3021 254.125 28.8438C253.552 28.3854 252.771 28.1562 251.781 28.1562C251.125 28.1562 250.521 28.2969 249.969 28.5781C249.417 28.849 248.943 29.2552 248.547 29.7969C248.151 30.3385 247.844 31 247.625 31.7812C247.406 32.5625 247.297 33.4635 247.297 34.4844V35.1406C247.297 35.9427 247.406 36.6979 247.625 37.4062C247.854 38.1042 248.182 38.7188 248.609 39.25C249.047 39.7812 249.573 40.1979 250.188 40.5C250.812 40.8021 251.521 40.9531 252.312 40.9531C253.333 40.9531 254.198 40.7448 254.906 40.3281C255.615 39.9115 256.234 39.3542 256.766 38.6562L258.516 40.0469C258.151 40.599 257.688 41.125 257.125 41.625C256.562 42.125 255.87 42.5312 255.047 42.8438C254.234 43.1562 253.271 43.3125 252.156 43.3125ZM265 29.7031V43H262.109V26.0938H264.844L265 29.7031ZM264.312 33.9062L263.109 33.8594C263.12 32.7031 263.292 31.6354 263.625 30.6562C263.958 29.6667 264.427 28.8073 265.031 28.0781C265.635 27.349 266.354 26.7865 267.188 26.3906C268.031 25.9844 268.964 25.7812 269.984 25.7812C270.818 25.7812 271.568 25.8958 272.234 26.125C272.901 26.3438 273.469 26.6979 273.938 27.1875C274.417 27.6771 274.781 28.3125 275.031 29.0938C275.281 29.8646 275.406 30.8073 275.406 31.9219V43H272.5V31.8906C272.5 31.0052 272.37 30.2969 272.109 29.7656C271.849 29.224 271.469 28.8333 270.969 28.5938C270.469 28.3438 269.854 28.2188 269.125 28.2188C268.406 28.2188 267.75 28.3698 267.156 28.6719C266.573 28.974 266.068 29.3906 265.641 29.9219C265.224 30.4531 264.896 31.0625 264.656 31.75C264.427 32.4271 264.312 33.1458 264.312 33.9062ZM290.141 39.0938V26.0938H293.047V43H290.281L290.141 39.0938ZM290.688 35.5312L291.891 35.5C291.891 36.625 291.771 37.6667 291.531 38.625C291.302 39.5729 290.927 40.3958 290.406 41.0938C289.885 41.7917 289.203 42.3385 288.359 42.7344C287.516 43.1198 286.49 43.3125 285.281 43.3125C284.458 43.3125 283.703 43.1927 283.016 42.9531C282.339 42.7135 281.755 42.3438 281.266 41.8438C280.776 41.3438 280.396 40.6927 280.125 39.8906C279.865 39.0885 279.734 38.125 279.734 37V26.0938H282.625V37.0312C282.625 37.7917 282.708 38.4219 282.875 38.9219C283.052 39.4115 283.286 39.8021 283.578 40.0938C283.88 40.375 284.214 40.5729 284.578 40.6875C284.953 40.8021 285.339 40.8594 285.734 40.8594C286.964 40.8594 287.938 40.625 288.656 40.1562C289.375 39.6771 289.891 39.0365 290.203 38.2344C290.526 37.4219 290.688 36.5208 290.688 35.5312Z" fill="#58758F"/>
<path d="M218.594 20.25V18.25H215.625L216.74 21.0011L218.594 20.25ZM221.516 20.25L223.371 19.5043L222.867 18.25H221.516V20.25ZM228.969 38.7969L227.113 39.5426L228.971 44.1655L230.825 39.5413L228.969 38.7969ZM236.406 20.25V18.25H235.053L234.55 19.5056L236.406 20.25ZM239.344 20.25L241.196 21.0033L242.316 18.25H239.344V20.25ZM230.094 43V45H231.44L231.946 43.7533L230.094 43ZM227.812 43L225.959 43.7511L226.465 45H227.812V43ZM217.641 20.25V18.25H215.641V20.25H217.641ZM220.219 20.25L222.218 20.1892L222.159 18.25H220.219V20.25ZM220.641 34.125H222.641V34.0946L222.64 34.0642L220.641 34.125ZM220.641 43V45H222.641V43H220.641ZM217.641 43H215.641V45H217.641V43ZM237.703 20.25V18.25H235.763L235.704 20.1892L237.703 20.25ZM240.281 20.25H242.281V18.25H240.281V20.25ZM240.281 43V45H242.281V43H240.281ZM237.281 43H235.281V45H237.281V43ZM237.281 34.125L235.282 34.0642L235.281 34.0946V34.125H237.281ZM218.594 22.25H221.516V18.25H218.594V22.25ZM219.66 20.9957L227.113 39.5426L230.825 38.0511L223.371 19.5043L219.66 20.9957ZM230.825 39.5413L238.263 20.9944L234.55 19.5056L227.112 38.0525L230.825 39.5413ZM236.406 22.25H239.344V18.25H236.406V22.25ZM237.491 19.4967L228.241 42.2467L231.946 43.7533L241.196 21.0033L237.491 19.4967ZM230.094 41H227.812V45H230.094V41ZM229.666 42.2489L220.447 19.4989L216.74 21.0011L225.959 43.7511L229.666 42.2489ZM217.641 22.25H220.219V18.25H217.641V22.25ZM218.22 20.3108L218.642 34.1858L222.64 34.0642L222.218 20.1892L218.22 20.3108ZM218.641 34.125V43H222.641V34.125H218.641ZM220.641 41H217.641V45H220.641V41ZM219.641 43V20.25H215.641V43H219.641ZM237.703 22.25H240.281V18.25H237.703V22.25ZM238.281 20.25V43H242.281V20.25H238.281ZM240.281 41H237.281V45H240.281V41ZM239.281 43V34.125H235.281V43H239.281ZM239.28 34.1858L239.702 20.3108L235.704 20.1892L235.282 34.0642L239.28 34.1858ZM248.953 42.7188L248.165 44.557L248.177 44.5622L248.19 44.5673L248.953 42.7188ZM246.5 41.0156L245.034 42.3765L245.04 42.3821L245.045 42.3877L246.5 41.0156ZM244.938 38.4219L243.058 39.1069L244.938 38.4219ZM245 30.8125L246.87 31.5207L246.873 31.5147L245 30.8125ZM246.656 28.0625L245.192 26.7L246.656 28.0625ZM254.906 26.4062L254.046 28.212L254.055 28.2159L254.906 26.4062ZM257.078 28.1562L255.478 29.3563L255.486 29.367L257.078 28.1562ZM258.328 30.7812L256.396 31.2991L256.398 31.3041L258.328 30.7812ZM258.734 35.3594V37.3594H260.734V35.3594H258.734ZM246.109 35.3594H244.109V37.3594H246.109V35.3594ZM246.109 33V31H244.109V33H246.109ZM255.844 33V35H257.844V33H255.844ZM255.844 32.7812H257.844V32.7257L257.841 32.6703L255.844 32.7812ZM255.375 30.5938L253.498 31.2839L253.502 31.296L253.507 31.308L255.375 30.5938ZM249.969 28.5781L250.85 30.3737L250.863 30.3671L250.877 30.3602L249.969 28.5781ZM247.625 37.4062L245.714 37.9964L245.719 38.0133L245.725 38.0302L247.625 37.4062ZM248.609 39.25L247.051 40.5031L247.058 40.5123L247.066 40.5214L248.609 39.25ZM250.188 40.5L249.305 42.2949L249.317 42.3007L250.188 40.5ZM256.766 38.6562L258.01 37.0904L256.411 35.82L255.174 37.4449L256.766 38.6562ZM258.516 40.0469L260.185 41.149L261.194 39.6206L259.76 38.4811L258.516 40.0469ZM255.047 42.8438L254.337 40.974L254.329 40.9771L255.047 42.8438ZM252.156 41.3125C251.206 41.3125 250.402 41.1534 249.717 40.8702L248.19 44.5673C249.421 45.0757 250.752 45.3125 252.156 45.3125V41.3125ZM249.741 40.8805C249.038 40.579 248.449 40.1674 247.955 39.6436L245.045 42.3877C245.926 43.3222 246.973 44.046 248.165 44.557L249.741 40.8805ZM247.966 39.6547C247.482 39.1343 247.096 38.5039 246.817 37.7368L243.058 39.1069C243.508 40.3398 244.163 41.4386 245.034 42.3765L247.966 39.6547ZM246.817 37.7368C246.541 36.9802 246.391 36.1213 246.391 35.1406H242.391C242.391 36.5349 242.605 37.8635 243.058 39.1069L246.817 37.7368ZM246.391 35.1406V34.4844H242.391V35.1406H246.391ZM246.391 34.4844C246.391 33.3045 246.565 32.3273 246.87 31.5207L243.13 30.1043C242.623 31.4435 242.391 32.9142 242.391 34.4844H246.391ZM246.873 31.5147C247.199 30.6445 247.622 29.9605 248.12 29.425L245.192 26.7C244.295 27.6645 243.614 28.8138 243.127 30.1103L246.873 31.5147ZM248.12 29.425C248.643 28.8637 249.211 28.4623 249.829 28.1932L248.233 24.5256C247.08 25.0273 246.066 25.7613 245.192 26.7L248.12 29.425ZM249.829 28.1932C250.468 27.9153 251.113 27.7812 251.781 27.7812V23.7812C250.553 23.7812 249.365 24.0326 248.233 24.5256L249.829 28.1932ZM251.781 27.7812C252.764 27.7812 253.498 27.9508 254.046 28.212L255.766 24.6005C254.565 24.0284 253.216 23.7812 251.781 23.7812V27.7812ZM254.055 28.2159C254.658 28.4998 255.12 28.8791 255.478 29.3563L258.678 26.9563C257.911 25.9334 256.925 25.146 255.758 24.5966L254.055 28.2159ZM255.486 29.367C255.873 29.8754 256.184 30.508 256.396 31.2991L260.26 30.2634C259.93 29.0336 259.408 27.9162 258.67 26.9455L255.486 29.367ZM256.398 31.3041C256.616 32.1109 256.734 33.0264 256.734 34.0625H260.734C260.734 32.7236 260.582 31.4516 260.259 30.2584L256.398 31.3041ZM256.734 34.0625V35.3594H260.734V34.0625H256.734ZM258.734 33.3594H246.109V37.3594H258.734V33.3594ZM248.109 35.3594V33H244.109V35.3594H248.109ZM246.109 35H255.844V31H246.109V35ZM257.844 33V32.7812H253.844V33H257.844ZM257.841 32.6703C257.787 31.7117 257.587 30.7792 257.243 29.8795L253.507 31.308C253.705 31.825 253.817 32.3508 253.847 32.8922L257.841 32.6703ZM257.252 29.9036C256.87 28.8632 256.241 27.975 255.374 27.282L252.876 30.4055C253.155 30.6292 253.36 30.9076 253.498 31.2839L257.252 29.9036ZM255.374 27.282C254.341 26.455 253.067 26.1562 251.781 26.1562V30.1562C252.475 30.1562 252.764 30.3159 252.876 30.4055L255.374 27.282ZM251.781 26.1562C250.829 26.1562 249.911 26.3631 249.061 26.796L250.877 30.3602C251.131 30.2307 251.421 30.1562 251.781 30.1562V26.1562ZM249.088 26.7825C248.219 27.2088 247.501 27.8379 246.932 28.6168L250.162 30.9769C250.384 30.6725 250.614 30.4891 250.85 30.3737L249.088 26.7825ZM246.932 28.6168C246.369 29.3875 245.969 30.2771 245.699 31.242L249.551 32.3205C249.718 31.7229 249.933 31.2896 250.162 30.9769L246.932 28.6168ZM245.699 31.242C245.42 32.2372 245.297 33.326 245.297 34.4844H249.297C249.297 33.6011 249.392 32.8878 249.551 32.3205L245.699 31.242ZM245.297 34.4844V35.1406H249.297V34.4844H245.297ZM245.297 35.1406C245.297 36.1264 245.432 37.0819 245.714 37.9964L249.536 36.8161C249.381 36.3139 249.297 35.759 249.297 35.1406H245.297ZM245.725 38.0302C246.023 38.9388 246.461 39.7703 247.051 40.5031L250.168 37.9969C249.903 37.6672 249.685 37.2695 249.525 36.7823L245.725 38.0302ZM247.066 40.5214C247.683 41.2711 248.434 41.8667 249.305 42.2949L251.07 38.7051C250.712 38.5291 250.411 38.2914 250.153 37.9786L247.066 40.5214ZM249.317 42.3007C250.249 42.7512 251.262 42.9531 252.312 42.9531V38.9531C251.78 38.9531 251.376 38.8529 251.058 38.6993L249.317 42.3007ZM252.312 42.9531C253.604 42.9531 254.838 42.6884 255.92 42.052L253.892 38.6043C253.557 38.8012 253.062 38.9531 252.312 38.9531V42.9531ZM255.92 42.052C256.867 41.4949 257.679 40.7582 258.357 39.8676L255.174 37.4449C254.79 37.9502 254.362 38.328 253.892 38.6043L255.92 42.052ZM255.521 40.2221L257.271 41.6127L259.76 38.4811L258.01 37.0904L255.521 40.2221ZM256.847 38.9448C256.59 39.3334 256.246 39.7302 255.796 40.1302L258.454 43.1198C259.129 42.5198 259.712 41.8645 260.185 41.149L256.847 38.9448ZM255.796 40.1302C255.443 40.4438 254.97 40.7335 254.337 40.974L255.757 44.7135C256.769 44.329 257.682 43.8062 258.454 43.1198L255.796 40.1302ZM254.329 40.9771C253.8 41.1806 253.091 41.3125 252.156 41.3125V45.3125C253.451 45.3125 254.669 45.1319 255.765 44.7104L254.329 40.9771ZM265 29.7031H267V29.6599L266.998 29.6166L265 29.7031ZM265 43V45H267V43H265ZM262.109 43H260.109V45H262.109V43ZM262.109 26.0938V24.0938H260.109V26.0938H262.109ZM264.844 26.0938L266.842 26.0073L266.759 24.0938H264.844V26.0938ZM264.312 33.9062L264.235 35.9047L266.312 35.9857V33.9062H264.312ZM263.109 33.8594L261.109 33.8414L261.092 35.7823L263.032 35.8579L263.109 33.8594ZM263.625 30.6562L265.518 31.3008L265.52 31.2947L263.625 30.6562ZM267.188 26.3906L268.046 28.1972L268.055 28.1926L267.188 26.3906ZM272.234 26.125L271.584 28.0164L271.597 28.0209L271.611 28.0253L272.234 26.125ZM273.938 27.1875L272.493 28.5706L272.5 28.5786L272.508 28.5864L273.938 27.1875ZM275.031 29.0938L273.126 29.7033L273.129 29.7108L275.031 29.0938ZM275.406 43V45H277.406V43H275.406ZM272.5 43H270.5V45H272.5V43ZM272.109 29.7656L270.307 30.6322L270.31 30.6391L270.314 30.6459L272.109 29.7656ZM270.969 28.5938L270.074 30.3826L270.089 30.3901L270.105 30.3974L270.969 28.5938ZM267.156 28.6719L266.249 26.8893L266.243 26.8926L266.237 26.8959L267.156 28.6719ZM265.641 29.9219L264.082 28.6688L264.074 28.6781L264.067 28.6876L265.641 29.9219ZM264.656 31.75L262.768 31.0918L262.765 31.1003L262.762 31.1088L264.656 31.75ZM263 29.7031V43H267V29.7031H263ZM265 41H262.109V45H265V41ZM264.109 43V26.0938H260.109V43H264.109ZM262.109 28.0938H264.844V24.0938H262.109V28.0938ZM262.846 26.1802L263.002 29.7896L266.998 29.6166L266.842 26.0073L262.846 26.1802ZM264.39 31.9078L263.187 31.8609L263.032 35.8579L264.235 35.9047L264.39 31.9078ZM265.109 33.8774C265.118 32.9095 265.261 32.0559 265.518 31.3008L261.732 30.0117C261.322 31.215 261.122 32.4968 261.109 33.8414L265.109 33.8774ZM265.52 31.2947C265.783 30.5138 266.139 29.8759 266.571 29.3542L263.491 26.8021C262.715 27.7387 262.133 28.8196 261.73 30.0178L265.52 31.2947ZM266.571 29.3542C266.995 28.8433 267.483 28.4646 268.046 28.1972L266.329 24.5841C265.226 25.1083 264.276 25.8546 263.491 26.8021L266.571 29.3542ZM268.055 28.1926C268.604 27.9281 269.236 27.7812 269.984 27.7812V23.7812C268.691 23.7812 267.458 24.0406 266.32 24.5886L268.055 28.1926ZM269.984 27.7812C270.636 27.7812 271.161 27.8709 271.584 28.0164L272.885 24.2336C271.974 23.9208 271 23.7812 269.984 23.7812V27.7812ZM271.611 28.0253C271.977 28.1454 272.259 28.3267 272.493 28.5706L275.382 25.8044C274.678 25.0691 273.825 24.5421 272.858 24.2247L271.611 28.0253ZM272.508 28.5864C272.731 28.8137 272.953 29.1606 273.126 29.7033L276.936 28.4842C276.61 27.4644 276.103 26.5405 275.367 25.7886L272.508 28.5864ZM273.129 29.7108C273.295 30.2232 273.406 30.944 273.406 31.9219H277.406C277.406 30.6706 277.267 29.5059 276.934 28.4767L273.129 29.7108ZM273.406 31.9219V43H277.406V31.9219H273.406ZM275.406 41H272.5V45H275.406V41ZM274.5 43V31.8906H270.5V43H274.5ZM274.5 31.8906C274.5 30.8387 274.35 29.7926 273.905 28.8853L270.314 30.6459C270.39 30.8012 270.5 31.1717 270.5 31.8906H274.5ZM273.912 28.899C273.472 27.9842 272.779 27.2432 271.833 26.7901L270.105 30.3974C270.159 30.4235 270.226 30.4637 270.307 30.6322L273.912 28.899ZM271.863 26.8049C271.014 26.3804 270.074 26.2188 269.125 26.2188V30.2188C269.635 30.2188 269.923 30.3071 270.074 30.3826L271.863 26.8049ZM269.125 26.2188C268.116 26.2188 267.146 26.4332 266.249 26.8893L268.063 30.4544C268.354 30.3064 268.696 30.2188 269.125 30.2188V26.2188ZM266.237 26.8959C265.397 27.3308 264.677 27.929 264.082 28.6688L267.199 31.175C267.459 30.8522 267.749 30.6172 268.076 30.4479L266.237 26.8959ZM264.067 28.6876C263.504 29.4053 263.074 30.2126 262.768 31.0918L266.545 32.4082C266.718 31.9124 266.944 31.5009 267.214 31.1562L264.067 28.6876ZM262.762 31.1088C262.458 32.0053 262.312 32.9417 262.312 33.9062H266.312C266.312 33.3499 266.396 32.8489 266.551 32.3912L262.762 31.1088ZM290.141 39.0938H288.141V39.1297L288.142 39.1657L290.141 39.0938ZM290.141 26.0938V24.0938H288.141V26.0938H290.141ZM293.047 26.0938H295.047V24.0938H293.047V26.0938ZM293.047 43V45H295.047V43H293.047ZM290.281 43L288.283 43.072L288.352 45H290.281V43ZM290.688 35.5312L290.636 33.5319L288.688 33.5825V35.5312H290.688ZM291.891 35.5H293.891V33.4474L291.839 33.5007L291.891 35.5ZM291.531 38.625L289.591 38.1399L289.589 38.1475L289.587 38.155L291.531 38.625ZM288.359 42.7344L289.19 44.5536L289.2 44.5493L289.209 44.545L288.359 42.7344ZM283.016 42.9531L282.348 44.8386L282.357 44.8417L283.016 42.9531ZM280.125 39.8906L278.223 40.5082L278.226 40.5194L278.23 40.5305L280.125 39.8906ZM279.734 26.0938V24.0938H277.734V26.0938H279.734ZM282.625 26.0938H284.625V24.0938H282.625V26.0938ZM282.875 38.9219L280.978 39.5543L280.986 39.5783L280.994 39.6021L282.875 38.9219ZM283.578 40.0938L282.164 41.508L282.189 41.5332L282.215 41.5575L283.578 40.0938ZM284.578 40.6875L283.978 42.5955L283.986 42.5979L283.994 42.6002L284.578 40.6875ZM288.656 40.1562L289.749 41.8315L289.757 41.826L289.766 41.8204L288.656 40.1562ZM290.203 38.2344L288.344 37.4957L288.34 37.5083L290.203 38.2344ZM292.141 39.0938V26.0938H288.141V39.0938H292.141ZM290.141 28.0938H293.047V24.0938H290.141V28.0938ZM291.047 26.0938V43H295.047V26.0938H291.047ZM293.047 41H290.281V45H293.047V41ZM292.28 42.928L292.139 39.0218L288.142 39.1657L288.283 43.072L292.28 42.928ZM290.739 37.5306L291.943 37.4993L291.839 33.5007L290.636 33.5319L290.739 37.5306ZM289.891 35.5C289.891 36.4836 289.786 37.3604 289.591 38.1399L293.472 39.1101C293.756 37.9729 293.891 36.7664 293.891 35.5H289.891ZM289.587 38.155C289.414 38.8718 289.144 39.4407 288.803 39.8976L292.009 42.2899C292.71 41.3509 293.19 40.274 293.475 39.095L289.587 38.155ZM288.803 39.8976C288.493 40.3134 288.077 40.6575 287.51 40.9237L289.209 44.545C290.329 44.0195 291.278 43.2699 292.009 42.2899L288.803 39.8976ZM287.528 40.9152C287.012 41.1512 286.286 41.3125 285.281 41.3125V45.3125C286.693 45.3125 288.019 45.0884 289.19 44.5536L287.528 40.9152ZM285.281 41.3125C284.654 41.3125 284.124 41.2214 283.674 41.0645L282.357 44.8417C283.282 45.164 284.263 45.3125 285.281 45.3125V41.3125ZM283.683 41.0677C283.286 40.9271 282.965 40.7206 282.695 40.4445L279.837 43.243C280.545 43.9669 281.391 44.4999 282.348 44.8386L283.683 41.0677ZM282.695 40.4445C282.455 40.1998 282.214 39.8268 282.02 39.2508L278.23 40.5305C278.577 41.5586 279.097 42.4877 279.837 43.243L282.695 40.4445ZM282.027 39.273C281.849 38.7244 281.734 37.9808 281.734 37H277.734C277.734 38.2692 277.88 39.4527 278.223 40.5082L282.027 39.273ZM281.734 37V26.0938H277.734V37H281.734ZM279.734 28.0938H282.625V24.0938H279.734V28.0938ZM280.625 26.0938V37.0312H284.625V26.0938H280.625ZM280.625 37.0312C280.625 37.92 280.72 38.7819 280.978 39.5543L284.772 38.2894C284.697 38.0619 284.625 37.6633 284.625 37.0312H280.625ZM280.994 39.6021C281.246 40.2975 281.618 40.9619 282.164 41.508L284.992 38.6795C284.955 38.6423 284.858 38.5254 284.756 38.2416L280.994 39.6021ZM282.215 41.5575C282.718 42.0253 283.307 42.3845 283.978 42.5955L285.178 38.7795C285.12 38.7613 285.043 38.7247 284.941 38.63L282.215 41.5575ZM283.994 42.6002C284.56 42.7732 285.142 42.8594 285.734 42.8594V38.8594C285.535 38.8594 285.346 38.8309 285.163 38.7748L283.994 42.6002ZM285.734 42.8594C287.192 42.8594 288.593 42.5852 289.749 41.8315L287.564 38.481C287.282 38.6648 286.735 38.8594 285.734 38.8594V42.8594ZM289.766 41.8204C290.825 41.1142 291.605 40.1467 292.067 38.9604L288.34 37.5083C288.177 37.9263 287.925 38.24 287.547 38.4921L289.766 41.8204ZM292.062 38.973C292.49 37.8965 292.688 36.7407 292.688 35.5312H288.688C288.688 36.301 288.563 36.9472 288.345 37.4957L292.062 38.973Z" fill="#1A2833" mask="url(#path-3-outside-1_23_1703)"/>
</g>
<g filter="url(#filter1_d_23_1703)">
<path d="M255.5 50L309.627 106.25H201.373L255.5 50Z" fill="#58758F"/>
<path d="M302.576 103.25H208.424L255.5 54.3262L302.576 103.25Z" stroke="#1A2833" stroke-width="6"/>
</g>
<defs>
<filter id="filter0_d_23_1703" x="207.625" y="14.25" width="87.4215" height="35.0625" filterUnits="userSpaceOnUse" color-interpolation-filters="sRGB">
<feFlood flood-opacity="0" result="BackgroundImageFix"/>
<feColorMatrix in="SourceAlpha" type="matrix" values="0 0 0 0 0 0 0 0 0 0 0 0 0 0 0 0 0 0 127 0" result="hardAlpha"/>
<feOffset dx="-4"/>
<feGaussianBlur stdDeviation="2"/>
<feComposite in2="hardAlpha" operator="out"/>
<feColorMatrix type="matrix" values="0 0 0 0 0 0 0 0 0 0 0 0 0 0 0 0 0 0 0.25 0"/>
<feBlend mode="normal" in2="BackgroundImageFix" result="effect1_dropShadow_23_1703"/>
<feBlend mode="normal" in="SourceGraphic" in2="effect1_dropShadow_23_1703" result="shape"/>
</filter>
<filter id="filter1_d_23_1703" x="187.373" y="40" width="128.253" height="76.25" filterUnits="userSpaceOnUse" color-interpolation-filters="sRGB">
<feFlood flood-opacity="0" result="BackgroundImageFix"/>
<feColorMatrix in="SourceAlpha" type="matrix" values="0 0 0 0 0 0 0 0 0 0 0 0 0 0 0 0 0 0 127 0" result="hardAlpha"/>
<feOffset dx="-4"/>
<feGaussianBlur stdDeviation="5"/>
<feComposite in2="hardAlpha" operator="out"/>
<feColorMatrix type="matrix" values="0 0 0 0 0 0 0 0 0 0 0 0 0 0 0 0 0 0 0.15 0"/>
<feBlend mode="normal" in2="BackgroundImageFix" result="effect1_dropShadow_23_1703"/>
<feBlend mode="normal" in="SourceGraphic" in2="effect1_dropShadow_23_1703" result="shape"/>
</filter>
</defs>
</svg>
