<svg width="100" height="512" viewBox="0 0 100 512" fill="none" xmlns="http://www.w3.org/2000/svg">
<path d="M0 0H85C93.2843 0 100 6.71573 100 15V497C100 505.284 93.2843 512 85 512H0V0Z" fill="#243748"/>
<g filter="url(#filter0_d_12_604)">
<mask id="path-2-outside-1_12_604" maskUnits="userSpaceOnUse" x="21" y="216" width="28" height="81" fill="black">
<rect fill="white" x="21" y="216" width="28" height="81"/>
<path d="M23.25 293.406V290.484L41.7969 283.031L23.25 275.594V272.656L46 281.906V284.188L23.25 293.406ZM23.25 294.359V291.781L37.125 291.359H46V294.359H23.25ZM23.25 274.297V271.719H46V274.719H37.125L23.25 274.297ZM46.3125 259.844C46.3125 261.021 46.1146 262.089 45.7188 263.047C45.3125 263.995 44.7448 264.812 44.0156 265.5C43.2865 266.177 42.4219 266.698 41.4219 267.062C40.4219 267.427 39.3281 267.609 38.1406 267.609H37.4844C36.1094 267.609 34.8854 267.406 33.8125 267C32.7292 266.594 31.8125 266.042 31.0625 265.344C30.3125 264.646 29.7448 263.854 29.3594 262.969C28.974 262.083 28.7812 261.167 28.7812 260.219C28.7812 259.01 28.9896 257.969 29.4062 257.094C29.8229 256.208 30.4062 255.484 31.1563 254.922C31.8958 254.359 32.7708 253.943 33.7812 253.672C34.7812 253.401 35.875 253.266 37.0625 253.266H38.3594V265.891H36V256.156H35.7812C35.0312 256.198 34.3021 256.354 33.5938 256.625C32.8854 256.885 32.3021 257.302 31.8438 257.875C31.3854 258.448 31.1563 259.229 31.1563 260.219C31.1563 260.875 31.2969 261.479 31.5781 262.031C31.849 262.583 32.2552 263.057 32.7969 263.453C33.3385 263.849 34 264.156 34.7812 264.375C35.5625 264.594 36.4635 264.703 37.4844 264.703H38.1406C38.9427 264.703 39.6979 264.594 40.4062 264.375C41.1042 264.146 41.7188 263.818 42.25 263.391C42.7812 262.953 43.1979 262.427 43.5 261.812C43.8021 261.188 43.9531 260.479 43.9531 259.688C43.9531 258.667 43.7448 257.802 43.3281 257.094C42.9115 256.385 42.3542 255.766 41.6562 255.234L43.0469 253.484C43.599 253.849 44.125 254.312 44.625 254.875C45.125 255.438 45.5312 256.13 45.8438 256.953C46.1562 257.766 46.3125 258.729 46.3125 259.844ZM32.7031 247H46V249.891H29.0938V247.156L32.7031 247ZM36.9062 247.688L36.8594 248.891C35.7031 248.88 34.6354 248.708 33.6562 248.375C32.6667 248.042 31.8073 247.573 31.0781 246.969C30.349 246.365 29.7865 245.646 29.3906 244.812C28.9844 243.969 28.7813 243.036 28.7813 242.016C28.7813 241.182 28.8958 240.432 29.125 239.766C29.3438 239.099 29.6979 238.531 30.1875 238.062C30.6771 237.583 31.3125 237.219 32.0938 236.969C32.8646 236.719 33.8073 236.594 34.9219 236.594H46V239.5H34.8906C34.0052 239.5 33.2969 239.63 32.7656 239.891C32.224 240.151 31.8333 240.531 31.5938 241.031C31.3438 241.531 31.2188 242.146 31.2188 242.875C31.2188 243.594 31.3698 244.25 31.6719 244.844C31.974 245.427 32.3906 245.932 32.9219 246.359C33.4531 246.776 34.0625 247.104 34.75 247.344C35.4271 247.573 36.1458 247.688 36.9062 247.688ZM42.0938 221.859H29.0938V218.953H46V221.719L42.0938 221.859ZM38.5312 221.312L38.5 220.109C39.625 220.109 40.6667 220.229 41.625 220.469C42.5729 220.698 43.3958 221.073 44.0938 221.594C44.7917 222.115 45.3385 222.797 45.7344 223.641C46.1198 224.484 46.3125 225.51 46.3125 226.719C46.3125 227.542 46.1927 228.297 45.9531 228.984C45.7135 229.661 45.3438 230.245 44.8438 230.734C44.3438 231.224 43.6927 231.604 42.8906 231.875C42.0885 232.135 41.125 232.266 40 232.266H29.0938V229.375H40.0312C40.7917 229.375 41.4219 229.292 41.9219 229.125C42.4115 228.948 42.8021 228.714 43.0938 228.422C43.375 228.12 43.5729 227.786 43.6875 227.422C43.8021 227.047 43.8594 226.661 43.8594 226.266C43.8594 225.036 43.625 224.062 43.1562 223.344C42.6771 222.625 42.0365 222.109 41.2344 221.797C40.4219 221.474 39.5208 221.312 38.5312 221.312Z"/>
</mask>
<path d="M23.25 293.406V290.484L41.7969 283.031L23.25 275.594V272.656L46 281.906V284.188L23.25 293.406ZM23.25 294.359V291.781L37.125 291.359H46V294.359H23.25ZM23.25 274.297V271.719H46V274.719H37.125L23.25 274.297ZM46.3125 259.844C46.3125 261.021 46.1146 262.089 45.7188 263.047C45.3125 263.995 44.7448 264.812 44.0156 265.5C43.2865 266.177 42.4219 266.698 41.4219 267.062C40.4219 267.427 39.3281 267.609 38.1406 267.609H37.4844C36.1094 267.609 34.8854 267.406 33.8125 267C32.7292 266.594 31.8125 266.042 31.0625 265.344C30.3125 264.646 29.7448 263.854 29.3594 262.969C28.974 262.083 28.7812 261.167 28.7812 260.219C28.7812 259.01 28.9896 257.969 29.4062 257.094C29.8229 256.208 30.4062 255.484 31.1563 254.922C31.8958 254.359 32.7708 253.943 33.7812 253.672C34.7812 253.401 35.875 253.266 37.0625 253.266H38.3594V265.891H36V256.156H35.7812C35.0312 256.198 34.3021 256.354 33.5938 256.625C32.8854 256.885 32.3021 257.302 31.8438 257.875C31.3854 258.448 31.1563 259.229 31.1563 260.219C31.1563 260.875 31.2969 261.479 31.5781 262.031C31.849 262.583 32.2552 263.057 32.7969 263.453C33.3385 263.849 34 264.156 34.7812 264.375C35.5625 264.594 36.4635 264.703 37.4844 264.703H38.1406C38.9427 264.703 39.6979 264.594 40.4062 264.375C41.1042 264.146 41.7188 263.818 42.25 263.391C42.7812 262.953 43.1979 262.427 43.5 261.812C43.8021 261.188 43.9531 260.479 43.9531 259.688C43.9531 258.667 43.7448 257.802 43.3281 257.094C42.9115 256.385 42.3542 255.766 41.6562 255.234L43.0469 253.484C43.599 253.849 44.125 254.312 44.625 254.875C45.125 255.438 45.5312 256.13 45.8438 256.953C46.1562 257.766 46.3125 258.729 46.3125 259.844ZM32.7031 247H46V249.891H29.0938V247.156L32.7031 247ZM36.9062 247.688L36.8594 248.891C35.7031 248.88 34.6354 248.708 33.6562 248.375C32.6667 248.042 31.8073 247.573 31.0781 246.969C30.349 246.365 29.7865 245.646 29.3906 244.812C28.9844 243.969 28.7813 243.036 28.7813 242.016C28.7813 241.182 28.8958 240.432 29.125 239.766C29.3438 239.099 29.6979 238.531 30.1875 238.062C30.6771 237.583 31.3125 237.219 32.0938 236.969C32.8646 236.719 33.8073 236.594 34.9219 236.594H46V239.5H34.8906C34.0052 239.5 33.2969 239.63 32.7656 239.891C32.224 240.151 31.8333 240.531 31.5938 241.031C31.3438 241.531 31.2188 242.146 31.2188 242.875C31.2188 243.594 31.3698 244.25 31.6719 244.844C31.974 245.427 32.3906 245.932 32.9219 246.359C33.4531 246.776 34.0625 247.104 34.75 247.344C35.4271 247.573 36.1458 247.688 36.9062 247.688ZM42.0938 221.859H29.0938V218.953H46V221.719L42.0938 221.859ZM38.5312 221.312L38.5 220.109C39.625 220.109 40.6667 220.229 41.625 220.469C42.5729 220.698 43.3958 221.073 44.0938 221.594C44.7917 222.115 45.3385 222.797 45.7344 223.641C46.1198 224.484 46.3125 225.51 46.3125 226.719C46.3125 227.542 46.1927 228.297 45.9531 228.984C45.7135 229.661 45.3438 230.245 44.8438 230.734C44.3438 231.224 43.6927 231.604 42.8906 231.875C42.0885 232.135 41.125 232.266 40 232.266H29.0938V229.375H40.0312C40.7917 229.375 41.4219 229.292 41.9219 229.125C42.4115 228.948 42.8021 228.714 43.0938 228.422C43.375 228.12 43.5729 227.786 43.6875 227.422C43.8021 227.047 43.8594 226.661 43.8594 226.266C43.8594 225.036 43.625 224.062 43.1562 223.344C42.6771 222.625 42.0365 222.109 41.2344 221.797C40.4219 221.474 39.5208 221.312 38.5312 221.312Z" fill="#58758F"/>
<path d="M23.25 293.406H21.25V296.375L24.0011 295.26L23.25 293.406ZM23.25 290.484L22.5043 288.629L21.25 289.133V290.484H23.25ZM41.7969 283.031L42.5426 284.887L47.1655 283.029L42.5413 281.175L41.7969 283.031ZM23.25 275.594H21.25V276.947L22.5056 277.45L23.25 275.594ZM23.25 272.656L24.0033 270.804L21.25 269.684V272.656H23.25ZM46 281.906H48V280.56L46.7533 280.054L46 281.906ZM46 284.188L46.7511 286.041L48 285.535V284.188H46ZM23.25 294.359H21.25V296.359H23.25V294.359ZM23.25 291.781L23.1892 289.782L21.25 289.841V291.781H23.25ZM37.125 291.359V289.359H37.0946L37.0642 289.36L37.125 291.359ZM46 291.359H48V289.359H46V291.359ZM46 294.359V296.359H48V294.359H46ZM23.25 274.297H21.25V276.237L23.1892 276.296L23.25 274.297ZM23.25 271.719V269.719H21.25V271.719H23.25ZM46 271.719H48V269.719H46V271.719ZM46 274.719V276.719H48V274.719H46ZM37.125 274.719L37.0642 276.718L37.0946 276.719H37.125V274.719ZM25.25 293.406V290.484H21.25V293.406H25.25ZM23.9957 292.34L42.5426 284.887L41.0511 281.175L22.5043 288.629L23.9957 292.34ZM42.5413 281.175L23.9944 273.737L22.5056 277.45L41.0525 284.888L42.5413 281.175ZM25.25 275.594V272.656H21.25V275.594H25.25ZM22.4967 274.509L45.2467 283.759L46.7533 280.054L24.0033 270.804L22.4967 274.509ZM44 281.906V284.188H48V281.906H44ZM45.2489 282.334L22.4989 291.553L24.0011 295.26L46.7511 286.041L45.2489 282.334ZM25.25 294.359V291.781H21.25V294.359H25.25ZM23.3108 293.78L37.1858 293.358L37.0642 289.36L23.1892 289.782L23.3108 293.78ZM37.125 293.359H46V289.359H37.125V293.359ZM44 291.359V294.359H48V291.359H44ZM46 292.359H23.25V296.359H46V292.359ZM25.25 274.297V271.719H21.25V274.297H25.25ZM23.25 273.719H46V269.719H23.25V273.719ZM44 271.719V274.719H48V271.719H44ZM46 272.719H37.125V276.719H46V272.719ZM37.1858 272.72L23.3108 272.298L23.1892 276.296L37.0642 276.718L37.1858 272.72ZM45.7188 263.047L47.557 263.835L47.5622 263.823L47.5673 263.81L45.7188 263.047ZM44.0156 265.5L45.3765 266.966L45.3821 266.96L45.3877 266.955L44.0156 265.5ZM41.4219 267.062L42.1069 268.942L41.4219 267.062ZM33.8125 267L34.5207 265.13L34.5147 265.127L33.8125 267ZM31.0625 265.344L29.7 266.808L31.0625 265.344ZM29.4062 257.094L31.212 257.954L31.2159 257.945L29.4062 257.094ZM31.1563 254.922L32.3563 256.522L32.367 256.514L31.1563 254.922ZM33.7812 253.672L34.2991 255.604L34.3041 255.602L33.7812 253.672ZM38.3594 253.266H40.3594V251.266H38.3594V253.266ZM38.3594 265.891V267.891H40.3594V265.891H38.3594ZM36 265.891H34V267.891H36V265.891ZM36 256.156H38V254.156H36V256.156ZM35.7812 256.156V254.156H35.7257L35.6703 254.159L35.7812 256.156ZM33.5938 256.625L34.2839 258.502L34.296 258.498L34.308 258.493L33.5938 256.625ZM31.5781 262.031L33.3737 261.15L33.3671 261.137L33.3602 261.123L31.5781 262.031ZM40.4062 264.375L40.9964 266.286L41.0133 266.281L41.0302 266.275L40.4062 264.375ZM42.25 263.391L43.5031 264.949L43.5123 264.942L43.5214 264.934L42.25 263.391ZM43.5 261.812L45.2949 262.695L45.3007 262.683L43.5 261.812ZM41.6562 255.234L40.0904 253.99L38.82 255.589L40.4449 256.826L41.6562 255.234ZM43.0469 253.484L44.149 251.815L42.6206 250.806L41.4811 252.24L43.0469 253.484ZM45.8438 256.953L43.974 257.663L43.9771 257.671L45.8438 256.953ZM44.3125 259.844C44.3125 260.794 44.1534 261.598 43.8702 262.283L47.5673 263.81C48.0757 262.579 48.3125 261.248 48.3125 259.844H44.3125ZM43.8805 262.259C43.579 262.962 43.1674 263.551 42.6436 264.045L45.3877 266.955C46.3222 266.074 47.046 265.027 47.557 263.835L43.8805 262.259ZM42.6547 264.034C42.1343 264.518 41.5039 264.904 40.7368 265.183L42.1069 268.942C43.3398 268.492 44.4386 267.837 45.3765 266.966L42.6547 264.034ZM40.7368 265.183C39.9802 265.459 39.1213 265.609 38.1406 265.609V269.609C39.5349 269.609 40.8635 269.395 42.1069 268.942L40.7368 265.183ZM38.1406 265.609H37.4844V269.609H38.1406V265.609ZM37.4844 265.609C36.3045 265.609 35.3273 265.435 34.5207 265.13L33.1043 268.87C34.4435 269.377 35.9142 269.609 37.4844 269.609V265.609ZM34.5147 265.127C33.6445 264.801 32.9605 264.378 32.425 263.88L29.7 266.808C30.6645 267.705 31.8138 268.386 33.1103 268.873L34.5147 265.127ZM32.425 263.88C31.8637 263.357 31.4623 262.789 31.1932 262.171L27.5256 263.767C28.0273 264.92 28.7613 265.934 29.7 266.808L32.425 263.88ZM31.1932 262.171C30.9153 261.532 30.7812 260.887 30.7812 260.219H26.7812C26.7812 261.447 27.0326 262.635 27.5256 263.767L31.1932 262.171ZM30.7812 260.219C30.7812 259.236 30.9508 258.502 31.212 257.954L27.6005 256.234C27.0284 257.435 26.7812 258.784 26.7812 260.219H30.7812ZM31.2159 257.945C31.4998 257.342 31.8791 256.88 32.3563 256.522L29.9563 253.322C28.9334 254.089 28.146 255.075 27.5966 256.242L31.2159 257.945ZM32.367 256.514C32.8754 256.127 33.508 255.816 34.2991 255.604L33.2634 251.74C32.0336 252.07 30.9162 252.592 29.9455 253.33L32.367 256.514ZM34.3041 255.602C35.1109 255.384 36.0264 255.266 37.0625 255.266V251.266C35.7236 251.266 34.4516 251.418 33.2584 251.741L34.3041 255.602ZM37.0625 255.266H38.3594V251.266H37.0625V255.266ZM36.3594 253.266V265.891H40.3594V253.266H36.3594ZM38.3594 263.891H36V267.891H38.3594V263.891ZM38 265.891V256.156H34V265.891H38ZM36 254.156H35.7812V258.156H36V254.156ZM35.6703 254.159C34.7117 254.213 33.7792 254.413 32.8795 254.757L34.308 258.493C34.825 258.295 35.3508 258.183 35.8922 258.153L35.6703 254.159ZM32.9036 254.748C31.8632 255.13 30.975 255.759 30.282 256.626L33.4055 259.124C33.6292 258.845 33.9076 258.64 34.2839 258.502L32.9036 254.748ZM30.282 256.626C29.455 257.659 29.1562 258.933 29.1562 260.219H33.1562C33.1562 259.525 33.3159 259.236 33.4055 259.124L30.282 256.626ZM29.1562 260.219C29.1562 261.171 29.3631 262.089 29.796 262.939L33.3602 261.123C33.2307 260.869 33.1562 260.579 33.1562 260.219H29.1562ZM29.7825 262.912C30.2088 263.781 30.8379 264.499 31.6168 265.068L33.9769 261.838C33.6725 261.616 33.4891 261.386 33.3737 261.15L29.7825 262.912ZM31.6168 265.068C32.3875 265.631 33.2771 266.031 34.242 266.301L35.3205 262.449C34.7229 262.282 34.2896 262.067 33.9769 261.838L31.6168 265.068ZM34.242 266.301C35.2372 266.58 36.326 266.703 37.4844 266.703V262.703C36.6011 262.703 35.8878 262.608 35.3205 262.449L34.242 266.301ZM37.4844 266.703H38.1406V262.703H37.4844V266.703ZM38.1406 266.703C39.1264 266.703 40.0819 266.568 40.9964 266.286L39.8161 262.464C39.3139 262.619 38.759 262.703 38.1406 262.703V266.703ZM41.0302 266.275C41.9388 265.977 42.7703 265.539 43.5031 264.949L40.9969 261.832C40.6672 262.097 40.2695 262.315 39.7823 262.475L41.0302 266.275ZM43.5214 264.934C44.2711 264.317 44.8667 263.566 45.2949 262.695L41.7051 260.93C41.5291 261.288 41.2914 261.589 40.9786 261.847L43.5214 264.934ZM45.3007 262.683C45.7512 261.751 45.9531 260.738 45.9531 259.688H41.9531C41.9531 260.22 41.8529 260.624 41.6993 260.942L45.3007 262.683ZM45.9531 259.688C45.9531 258.396 45.6884 257.162 45.052 256.08L41.6043 258.108C41.8012 258.443 41.9531 258.938 41.9531 259.688H45.9531ZM45.052 256.08C44.4949 255.133 43.7582 254.321 42.8676 253.643L40.4449 256.826C40.9502 257.21 41.328 257.638 41.6043 258.108L45.052 256.08ZM43.2221 256.479L44.6127 254.729L41.4811 252.24L40.0904 253.99L43.2221 256.479ZM41.9448 255.153C42.3334 255.41 42.7302 255.754 43.1302 256.204L46.1198 253.546C45.5198 252.871 44.8645 252.288 44.149 251.815L41.9448 255.153ZM43.1302 256.204C43.4438 256.557 43.7335 257.03 43.974 257.663L47.7135 256.243C47.329 255.231 46.8062 254.318 46.1198 253.546L43.1302 256.204ZM43.9771 257.671C44.1806 258.2 44.3125 258.909 44.3125 259.844H48.3125C48.3125 258.549 48.1319 257.331 47.7104 256.235L43.9771 257.671ZM32.7031 247V245H32.6599L32.6166 245.002L32.7031 247ZM46 247H48V245H46V247ZM46 249.891V251.891H48V249.891H46ZM29.0938 249.891H27.0938V251.891H29.0938V249.891ZM29.0938 247.156L29.0073 245.158L27.0938 245.241V247.156H29.0938ZM36.9062 247.688L38.9047 247.765L38.9857 245.688H36.9062V247.688ZM36.8594 248.891L36.8414 250.891L38.7823 250.908L38.8579 248.968L36.8594 248.891ZM33.6562 248.375L34.3008 246.482L34.2947 246.48L33.6562 248.375ZM29.3906 244.812L31.1972 243.954L31.1926 243.945L29.3906 244.812ZM29.125 239.766L31.0164 240.416L31.0209 240.403L31.0253 240.389L29.125 239.766ZM30.1875 238.062L31.5706 239.507L31.5786 239.5L31.5864 239.492L30.1875 238.062ZM32.0938 236.969L32.7033 238.874L32.7108 238.871L32.0938 236.969ZM46 236.594H48V234.594H46V236.594ZM46 239.5V241.5H48V239.5H46ZM32.7656 239.891L33.6322 241.693L33.6391 241.69L33.6459 241.686L32.7656 239.891ZM31.5938 241.031L33.3826 241.926L33.3901 241.911L33.3974 241.895L31.5938 241.031ZM31.6719 244.844L29.8893 245.751L29.8926 245.757L29.8959 245.763L31.6719 244.844ZM32.9219 246.359L31.6688 247.918L31.6781 247.926L31.6876 247.933L32.9219 246.359ZM34.75 247.344L34.0918 249.232L34.1003 249.235L34.1088 249.238L34.75 247.344ZM32.7031 249H46V245H32.7031V249ZM44 247V249.891H48V247H44ZM46 247.891H29.0938V251.891H46V247.891ZM31.0938 249.891V247.156H27.0938V249.891H31.0938ZM29.1802 249.154L32.7896 248.998L32.6166 245.002L29.0073 245.158L29.1802 249.154ZM34.9078 247.61L34.8609 248.813L38.8579 248.968L38.9047 247.765L34.9078 247.61ZM36.8774 246.891C35.9095 246.882 35.0559 246.739 34.3008 246.482L33.0117 250.268C34.215 250.678 35.4968 250.878 36.8414 250.891L36.8774 246.891ZM34.2947 246.48C33.5138 246.217 32.8759 245.861 32.3542 245.429L29.8021 248.509C30.7387 249.285 31.8196 249.867 33.0178 250.27L34.2947 246.48ZM32.3542 245.429C31.8433 245.005 31.4646 244.517 31.1972 243.954L27.5841 245.671C28.1083 246.774 28.8546 247.724 29.8021 248.509L32.3542 245.429ZM31.1926 243.945C30.9281 243.396 30.7813 242.764 30.7813 242.016H26.7813C26.7813 243.309 27.0406 244.542 27.5886 245.68L31.1926 243.945ZM30.7813 242.016C30.7813 241.364 30.8709 240.839 31.0164 240.416L27.2336 239.115C26.9208 240.026 26.7813 241 26.7813 242.016H30.7813ZM31.0253 240.389C31.1454 240.023 31.3267 239.741 31.5706 239.507L28.8044 236.618C28.0691 237.322 27.5421 238.175 27.2247 239.142L31.0253 240.389ZM31.5864 239.492C31.8137 239.269 32.1606 239.047 32.7033 238.874L31.4842 235.064C30.4644 235.39 29.5405 235.897 28.7886 236.633L31.5864 239.492ZM32.7108 238.871C33.2232 238.705 33.944 238.594 34.9219 238.594V234.594C33.6706 234.594 32.5059 234.733 31.4767 235.066L32.7108 238.871ZM34.9219 238.594H46V234.594H34.9219V238.594ZM44 236.594V239.5H48L48 236.594H44ZM46 237.5H34.8906V241.5H46V237.5ZM34.8906 237.5C33.8387 237.5 32.7926 237.65 31.8853 238.095L33.6459 241.686C33.8012 241.61 34.1717 241.5 34.8906 241.5V237.5ZM31.899 238.088C30.9842 238.528 30.2432 239.221 29.7901 240.167L33.3974 241.895C33.4235 241.841 33.4637 241.774 33.6322 241.693L31.899 238.088ZM29.8049 240.137C29.3804 240.986 29.2188 241.926 29.2188 242.875H33.2188C33.2188 242.365 33.3071 242.077 33.3826 241.926L29.8049 240.137ZM29.2188 242.875C29.2188 243.884 29.4332 244.854 29.8893 245.751L33.4544 243.937C33.3064 243.646 33.2188 243.304 33.2188 242.875H29.2188ZM29.8959 245.763C30.3308 246.603 30.929 247.323 31.6688 247.918L34.175 244.801C33.8522 244.541 33.6172 244.251 33.4479 243.924L29.8959 245.763ZM31.6876 247.933C32.4053 248.496 33.2126 248.926 34.0918 249.232L35.4082 245.455C34.9124 245.282 34.5009 245.056 34.1562 244.786L31.6876 247.933ZM34.1088 249.238C35.0053 249.542 35.9417 249.688 36.9062 249.688V245.688C36.3499 245.688 35.8489 245.604 35.3912 245.449L34.1088 249.238ZM42.0938 221.859V223.859H42.1297L42.1657 223.858L42.0938 221.859ZM29.0938 221.859H27.0938V223.859H29.0938V221.859ZM29.0938 218.953V216.953H27.0938V218.953H29.0938ZM46 218.953H48V216.953H46V218.953ZM46 221.719L46.072 223.717L48 223.648V221.719H46ZM38.5312 221.312L36.5319 221.364L36.5825 223.312H38.5312V221.312ZM38.5 220.109V218.109H36.4474L36.5007 220.161L38.5 220.109ZM41.625 220.469L41.1399 222.409L41.1475 222.411L41.155 222.413L41.625 220.469ZM45.7344 223.641L47.5536 222.81L47.5493 222.8L47.545 222.791L45.7344 223.641ZM45.9531 228.984L47.8386 229.652L47.8417 229.643L45.9531 228.984ZM42.8906 231.875L43.5082 233.777L43.5194 233.774L43.5305 233.77L42.8906 231.875ZM29.0938 232.266H27.0938V234.266H29.0938V232.266ZM29.0938 229.375V227.375H27.0938V229.375H29.0938ZM41.9219 229.125L42.5543 231.022L42.5783 231.014L42.6021 231.006L41.9219 229.125ZM43.0938 228.422L44.508 229.836L44.5332 229.811L44.5575 229.785L43.0938 228.422ZM43.6875 227.422L45.5955 228.022L45.5979 228.014L45.6002 228.006L43.6875 227.422ZM43.1562 223.344L44.8315 222.251L44.826 222.243L44.8204 222.234L43.1562 223.344ZM41.2344 221.797L40.4957 223.656L40.5083 223.66L41.2344 221.797ZM42.0938 219.859H29.0938V223.859H42.0938V219.859ZM31.0938 221.859V218.953H27.0938V221.859H31.0938ZM29.0938 220.953H46V216.953H29.0938V220.953ZM44 218.953V221.719H48V218.953H44ZM45.928 219.72L42.0218 219.861L42.1657 223.858L46.072 223.717L45.928 219.72ZM40.5306 221.261L40.4993 220.057L36.5007 220.161L36.5319 221.364L40.5306 221.261ZM38.5 222.109C39.4836 222.109 40.3604 222.214 41.1399 222.409L42.1101 218.528C40.9729 218.244 39.7664 218.109 38.5 218.109V222.109ZM41.155 222.413C41.8718 222.586 42.4407 222.856 42.8976 223.197L45.2899 219.991C44.3509 219.29 43.274 218.81 42.095 218.525L41.155 222.413ZM42.8976 223.197C43.3134 223.507 43.6575 223.923 43.9237 224.49L47.545 222.791C47.0195 221.671 46.2699 220.722 45.2899 219.991L42.8976 223.197ZM43.9152 224.472C44.1512 224.988 44.3125 225.714 44.3125 226.719H48.3125C48.3125 225.307 48.0884 223.981 47.5536 222.81L43.9152 224.472ZM44.3125 226.719C44.3125 227.346 44.2214 227.876 44.0645 228.326L47.8417 229.643C48.164 228.718 48.3125 227.737 48.3125 226.719H44.3125ZM44.0677 228.317C43.9271 228.714 43.7206 229.035 43.4445 229.305L46.243 232.163C46.9669 231.455 47.4999 230.609 47.8386 229.652L44.0677 228.317ZM43.4445 229.305C43.1998 229.545 42.8268 229.786 42.2508 229.98L43.5305 233.77C44.5586 233.423 45.4877 232.903 46.243 232.163L43.4445 229.305ZM42.273 229.973C41.7244 230.151 40.9808 230.266 40 230.266V234.266C41.2692 234.266 42.4527 234.12 43.5082 233.777L42.273 229.973ZM40 230.266H29.0938V234.266H40V230.266ZM31.0938 232.266V229.375H27.0938V232.266H31.0938ZM29.0938 231.375H40.0312V227.375H29.0938V231.375ZM40.0312 231.375C40.92 231.375 41.7819 231.28 42.5543 231.022L41.2894 227.228C41.0619 227.303 40.6633 227.375 40.0312 227.375V231.375ZM42.6021 231.006C43.2975 230.754 43.9619 230.382 44.508 229.836L41.6795 227.008C41.6423 227.045 41.5254 227.142 41.2416 227.244L42.6021 231.006ZM44.5575 229.785C45.0253 229.282 45.3845 228.693 45.5955 228.022L41.7795 226.822C41.7613 226.88 41.7247 226.957 41.63 227.059L44.5575 229.785ZM45.6002 228.006C45.7732 227.44 45.8594 226.858 45.8594 226.266H41.8594C41.8594 226.465 41.8309 226.654 41.7748 226.837L45.6002 228.006ZM45.8594 226.266C45.8594 224.808 45.5852 223.407 44.8315 222.251L41.481 224.436C41.6648 224.718 41.8594 225.265 41.8594 226.266H45.8594ZM44.8204 222.234C44.1142 221.175 43.1467 220.395 41.9604 219.933L40.5083 223.66C40.9263 223.823 41.24 224.075 41.4921 224.453L44.8204 222.234ZM41.973 219.938C40.8965 219.51 39.7407 219.312 38.5312 219.312V223.312C39.301 223.312 39.9472 223.437 40.4957 223.655L41.973 219.938Z" fill="#1A2833" mask="url(#path-2-outside-1_12_604)"/>
</g>
<defs>
<filter id="filter0_d_12_604" x="13.25" y="212.953" width="35.0625" height="87.4215" filterUnits="userSpaceOnUse" color-interpolation-filters="sRGB">
<feFlood flood-opacity="0" result="BackgroundImageFix"/>
<feColorMatrix in="SourceAlpha" type="matrix" values="0 0 0 0 0 0 0 0 0 0 0 0 0 0 0 0 0 0 127 0" result="hardAlpha"/>
<feOffset dx="-4"/>
<feGaussianBlur stdDeviation="2"/>
<feComposite in2="hardAlpha" operator="out"/>
<feColorMatrix type="matrix" values="0 0 0 0 0 0 0 0 0 0 0 0 0 0 0 0 0 0 0.25 0"/>
<feBlend mode="normal" in2="BackgroundImageFix" result="effect1_dropShadow_12_604"/>
<feBlend mode="normal" in="SourceGraphic" in2="effect1_dropShadow_12_604" result="shape"/>
</filter>
</defs>
</svg>
